<svg width="1802" height="1080" viewBox="0 0 1802 1080" fill="none" xmlns="http://www.w3.org/2000/svg">
<g opacity="0.15">
<line x1="0.993164" y1="176.027" x2="1800.97" y2="176.027" stroke="#00244D" stroke-width="7"/>
<line x1="0.99707" y1="414.508" x2="1800.97" y2="414.508" stroke="#00244D" stroke-width="7"/>
<path d="M0.999023 657.253H1800.96" stroke="#00244D" stroke-width="7"/>
<path d="M0.999512 892.748H1801" stroke="#00244D" stroke-width="7"/>
<line x1="315.075" y1="47.5814" x2="315.075" y2="1029.26" stroke="#00244D" stroke-width="7"/>
<line x1="613.669" y1="47.5814" x2="613.669" y2="1029.26" stroke="#00244D" stroke-width="7"/>
<line x1="909.277" y1="47.5814" x2="909.277" y2="1029.26" stroke="#00244D" stroke-width="7"/>
<line x1="1207.87" y1="47.5814" x2="1207.87" y2="1029.26" stroke="#00244D" stroke-width="7"/>
<line x1="1506.46" y1="47.5814" x2="1506.46" y2="1029.26" stroke="#00244D" stroke-width="7"/>
<path d="M116.213 1029.26L116.213 44.8919M436.807 1029.26L436.807 44.8919M196.361 1029.26L196.361 44.8919" stroke="black"/>
<line x1="514.786" y1="1029.26" x2="514.786" y2="44.8919" stroke="black"/>
<line x1="728.515" y1="1029.26" x2="728.515" y2="44.8919" stroke="black"/>
<line x1="805.324" y1="1029.26" x2="805.324" y2="44.8919" stroke="black"/>
<line x1="1029.07" y1="1029.26" x2="1029.07" y2="44.8919" stroke="black"/>
<line x1="1105.88" y1="1029.26" x2="1105.88" y2="44.8919" stroke="black"/>
<line x1="1329.63" y1="1029.26" x2="1329.63" y2="44.8919" stroke="black"/>
<path d="M1720.85 1029.26L1720.85 44.8919M1405.27 1029.26L1405.27 44.8919M1634.02 1029.26L1634.02 44.8919" stroke="black"/>
<line x1="1" y1="291.157" x2="1801.08" y2="291.157" stroke="black"/>
<line y1="-0.5" x2="1800" y2="-0.5" transform="matrix(1 0.000747069 -0.00115186 0.999999 1 537.077)" stroke="black"/>
<path d="M0.98584 775.101H1801.02" stroke="black"/>
<rect width="39.4159" height="39.4159" transform="matrix(0.778826 -0.62724 0.778826 0.62724 284.859 175.621)" fill="#00244D"/>
<rect width="39.4159" height="39.4159" transform="matrix(0.778826 -0.62724 0.778826 0.62724 585.416 177.197)" fill="#00244D"/>
<rect width="39.4159" height="39.4159" transform="matrix(0.778826 -0.627241 0.778826 0.627241 879.293 177.197)" fill="#00244D"/>
<rect width="39.4159" height="39.4159" transform="matrix(0.778826 -0.627241 0.778826 0.627241 1176.51 177.197)" fill="#00244D"/>
<rect width="39.416" height="39.416" transform="matrix(0.778826 -0.62724 0.778826 0.62724 1477.07 177.197)" fill="#00244D"/>
<rect width="39.4159" height="39.4159" transform="matrix(0.778826 -0.62724 0.778826 0.62724 284.859 416.565)" fill="#00244D"/>
<rect width="39.4159" height="39.4159" transform="matrix(0.778826 -0.62724 0.778826 0.62724 585.416 415.451)" fill="#00244D"/>
<rect width="39.4159" height="39.4159" transform="matrix(0.778826 -0.62724 0.778826 0.62724 879.293 415.451)" fill="#00244D"/>
<rect width="39.4159" height="39.4159" transform="matrix(0.778826 -0.62724 0.778826 0.62724 1176.51 415.451)" fill="#00244D"/>
<rect width="39.416" height="39.416" transform="matrix(0.778826 -0.62724 0.778826 0.62724 1477.07 415.451)" fill="#00244D"/>
<rect width="39.4159" height="39.4159" transform="matrix(0.778826 -0.62724 0.778826 0.62724 284.859 658.624)" fill="#00244D"/>
<rect width="39.4159" height="39.4159" transform="matrix(0.778826 -0.62724 0.778826 0.62724 582.076 657.51)" fill="#00244D"/>
<path d="M879.293 657.51L909.991 632.786L940.689 657.51L909.991 682.233L879.293 657.51Z" fill="#00244D"/>
<rect width="39.4159" height="39.4159" transform="matrix(0.778825 -0.627241 0.778825 0.627241 1176.51 657.51)" fill="#00244D"/>
<rect width="39.416" height="39.416" transform="matrix(0.778826 -0.62724 0.778826 0.62724 1477.07 657.51)" fill="#00244D"/>
<rect width="39.4159" height="39.4159" transform="matrix(0.778826 -0.62724 0.778826 0.62724 284.859 892.613)" fill="#00244D"/>
<rect width="39.4159" height="39.4159" transform="matrix(0.778826 -0.62724 0.778826 0.62724 585.416 894.189)" fill="#00244D"/>
<rect width="39.4159" height="39.4159" transform="matrix(0.778825 -0.627241 0.778825 0.627241 879.293 894.189)" fill="#00244D"/>
<rect width="39.4159" height="39.4159" transform="matrix(0.778825 -0.627241 0.778825 0.627241 1176.51 894.189)" fill="#00244D"/>
<rect width="39.4159" height="39.4159" transform="matrix(0.778826 -0.627239 0.778826 0.627239 1477.07 894.189)" fill="#00244D"/>
</g>
</svg>
