<svg width="1800" height="1080" viewBox="0 0 1800 1080" fill="none" xmlns="http://www.w3.org/2000/svg">
<line x1="14.9375" y1="176.5" x2="1799.96" y2="176.5" stroke="#00244D" stroke-width="7"/>
<line y1="-3.5" x2="1785.03" y2="-3.5" transform="matrix(1 0.000672249 -0.00103647 0.999999 14.9375 420)" stroke="#00244D" stroke-width="7"/>
<path d="M14.9375 660L1799.96 656.4" stroke="#00244D" stroke-width="7"/>
<path d="M0 893.4H1800" stroke="#00244D" stroke-width="7"/>
<line x1="314.075" y1="47.5814" x2="314.075" y2="1029.26" stroke="#00244D" stroke-width="7"/>
<line x1="612.669" y1="47.5814" x2="612.669" y2="1029.26" stroke="#00244D" stroke-width="7"/>
<line x1="908.277" y1="47.5814" x2="908.277" y2="1029.26" stroke="#00244D" stroke-width="7"/>
<line x1="1206.87" y1="47.5814" x2="1206.87" y2="1029.26" stroke="#00244D" stroke-width="7"/>
<line x1="1505.46" y1="47.5814" x2="1505.46" y2="1029.26" stroke="#00244D" stroke-width="7"/>
<line x1="436.977" y1="1029.26" x2="436.977" y2="44.8919" stroke="black"/>
<line x1="513.786" y1="1029.26" x2="513.786" y2="44.8919" stroke="black"/>
<line x1="727.515" y1="1029.26" x2="727.515" y2="44.8919" stroke="black"/>
<line x1="804.324" y1="1029.26" x2="804.324" y2="44.8919" stroke="black"/>
<line x1="1028.07" y1="1029.26" x2="1028.07" y2="44.8919" stroke="black"/>
<line x1="1104.88" y1="1029.26" x2="1104.88" y2="44.8919" stroke="black"/>
<line x1="1328.63" y1="1029.26" x2="1328.63" y2="44.8919" stroke="black"/>
<line x1="1405.44" y1="1029.26" x2="1405.44" y2="44.8919" stroke="black"/>
<line x1="13.3579" y1="299.898" x2="1800" y2="299.898" stroke="black"/>
<line x1="13.3579" y1="539.267" x2="1800" y2="539.267" stroke="black"/>
<line x1="13.3579" y1="773.256" x2="1800" y2="773.256" stroke="black"/>
<rect width="39.4159" height="39.4159" transform="matrix(0.778826 -0.62724 0.778826 0.62724 283.859 175.621)" fill="#00244D"/>
<rect width="39.4159" height="39.4159" transform="matrix(0.778826 -0.62724 0.778826 0.62724 584.416 177.197)" fill="#00244D"/>
<rect width="39.4159" height="39.4159" transform="matrix(0.778826 -0.627241 0.778826 0.627241 878.293 177.197)" fill="#00244D"/>
<rect width="39.4159" height="39.4159" transform="matrix(0.778825 -0.627241 0.778825 0.627241 1178.85 177.197)" fill="#00244D"/>
<rect width="39.416" height="39.416" transform="matrix(0.778826 -0.62724 0.778826 0.62724 1476.07 177.197)" fill="#00244D"/>
<rect width="39.4159" height="39.4159" transform="matrix(0.778826 -0.62724 0.778826 0.62724 283.859 416.565)" fill="#00244D"/>
<rect width="39.4159" height="39.4159" transform="matrix(0.778826 -0.62724 0.778826 0.62724 584.416 418.141)" fill="#00244D"/>
<rect width="39.4159" height="39.4159" transform="matrix(0.778826 -0.62724 0.778826 0.62724 881.632 418.141)" fill="#00244D"/>
<rect width="39.4159" height="39.4159" transform="matrix(0.778825 -0.627241 0.778825 0.627241 1178.85 418.141)" fill="#00244D"/>
<rect width="39.416" height="39.416" transform="matrix(0.778826 -0.62724 0.778826 0.62724 1476.07 418.141)" fill="#00244D"/>
<rect width="39.4159" height="39.4159" transform="matrix(0.778826 -0.62724 0.778826 0.62724 283.859 658.624)" fill="#00244D"/>
<rect width="39.4159" height="39.4159" transform="matrix(0.778826 -0.62724 0.778826 0.62724 584.416 660.199)" fill="#00244D"/>
<rect width="39.4159" height="39.4159" transform="matrix(0.778826 -0.62724 0.778826 0.62724 881.632 660.199)" fill="#00244D"/>
<rect width="39.4159" height="39.4159" transform="matrix(0.778825 -0.627241 0.778825 0.627241 1178.85 660.199)" fill="#00244D"/>
<rect width="39.416" height="39.416" transform="matrix(0.778826 -0.62724 0.778826 0.62724 1476.07 660.199)" fill="#00244D"/>
<rect width="39.4159" height="39.4159" transform="matrix(0.778826 -0.62724 0.778826 0.62724 283.859 892.613)" fill="#00244D"/>
<rect width="39.4159" height="39.4159" transform="matrix(0.778826 -0.62724 0.778826 0.62724 584.416 894.189)" fill="#00244D"/>
<rect width="39.4159" height="39.4159" transform="matrix(0.778825 -0.627241 0.778825 0.627241 878.293 894.189)" fill="#00244D"/>
<rect width="39.4159" height="39.4159" transform="matrix(0.778826 -0.62724 0.778826 0.62724 1178.85 894.189)" fill="#00244D"/>
<rect width="39.4159" height="39.4159" transform="matrix(0.778826 -0.627239 0.778826 0.627239 1476.07 894.189)" fill="#00244D"/>
</svg>
