<svg width="1802" height="1080" viewBox="0 0 1802 1080" fill="none" xmlns="http://www.w3.org/2000/svg">
<g opacity="0.15">
<line x1="0.995605" y1="178.874" x2="1800.97" y2="178.874" stroke="#00244D" stroke-width="7"/>
<line x1="0.999023" y1="416.469" x2="1800.97" y2="416.469" stroke="#00244D" stroke-width="7"/>
<path d="M1 660.796L1800.96 656.4" stroke="#00244D" stroke-width="7"/>
<path d="M1 893.4H1801" stroke="#00244D" stroke-width="7"/>
<line x1="315.075" y1="47.5814" x2="315.075" y2="1029.26" stroke="#00244D" stroke-width="7"/>
<line x1="613.669" y1="47.5814" x2="613.669" y2="1029.26" stroke="#00244D" stroke-width="7"/>
<line x1="909.277" y1="47.5814" x2="909.277" y2="1029.26" stroke="#00244D" stroke-width="7"/>
<line x1="1207.87" y1="47.5814" x2="1207.87" y2="1029.26" stroke="#00244D" stroke-width="7"/>
<line x1="1506.46" y1="47.5814" x2="1506.46" y2="1029.26" stroke="#00244D" stroke-width="7"/>
<line x1="437.977" y1="1029.26" x2="437.977" y2="44.8919" stroke="black"/>
<line x1="514.786" y1="1029.26" x2="514.786" y2="44.8919" stroke="black"/>
<line x1="728.515" y1="1029.26" x2="728.515" y2="44.8919" stroke="black"/>
<line x1="805.324" y1="1029.26" x2="805.324" y2="44.8919" stroke="black"/>
<line x1="1029.07" y1="1029.26" x2="1029.07" y2="44.8919" stroke="black"/>
<line x1="1105.88" y1="1029.26" x2="1105.88" y2="44.8919" stroke="black"/>
<line x1="1329.63" y1="1029.26" x2="1329.63" y2="44.8919" stroke="black"/>
<line x1="1406.44" y1="1029.26" x2="1406.44" y2="44.8919" stroke="black"/>
<line x1="1" y1="299.898" x2="1801" y2="299.898" stroke="black"/>
<line x1="0.998535" y1="537.922" x2="1801" y2="537.922" stroke="black"/>
<line x1="0.998535" y1="771.911" x2="1801" y2="771.911" stroke="black"/>
<rect width="39.4159" height="39.4159" transform="matrix(0.778826 -0.62724 0.778826 0.62724 284.859 175.621)" fill="#00244D"/>
<rect width="39.4159" height="39.4159" transform="matrix(0.778826 -0.62724 0.778826 0.62724 585.416 177.197)" fill="#00244D"/>
<rect width="39.4159" height="39.4159" transform="matrix(0.778826 -0.627241 0.778826 0.627241 879.293 177.197)" fill="#00244D"/>
<rect width="39.4159" height="39.4159" transform="matrix(0.778826 -0.627241 0.778826 0.627241 1176.51 177.197)" fill="#00244D"/>
<rect width="39.416" height="39.416" transform="matrix(0.778826 -0.62724 0.778826 0.62724 1477.07 177.197)" fill="#00244D"/>
<rect width="39.4159" height="39.4159" transform="matrix(0.778826 -0.62724 0.778826 0.62724 284.859 416.565)" fill="#00244D"/>
<rect width="39.4159" height="39.4159" transform="matrix(0.778826 -0.62724 0.778826 0.62724 585.416 418.141)" fill="#00244D"/>
<rect width="39.4159" height="39.4159" transform="matrix(0.778825 -0.627241 0.778825 0.627241 879.293 418.141)" fill="#00244D"/>
<rect width="39.4159" height="39.4159" transform="matrix(0.778825 -0.627241 0.778825 0.627241 1176.51 418.141)" fill="#00244D"/>
<rect width="39.416" height="39.416" transform="matrix(0.778826 -0.62724 0.778826 0.62724 1477.07 418.141)" fill="#00244D"/>
<rect width="39.4159" height="39.4159" transform="matrix(0.778826 -0.62724 0.778826 0.62724 284.859 658.624)" fill="#00244D"/>
<rect width="39.4159" height="39.4159" transform="matrix(0.778826 -0.62724 0.778826 0.62724 582.076 660.199)" fill="#00244D"/>
<path d="M879.293 660.199L909.991 635.476L940.689 660.199L909.991 684.922L879.293 660.199Z" fill="#00244D"/>
<rect width="39.4159" height="39.4159" transform="matrix(0.778825 -0.627241 0.778825 0.627241 1176.51 660.199)" fill="#00244D"/>
<rect width="39.416" height="39.416" transform="matrix(0.778826 -0.62724 0.778826 0.62724 1477.07 660.199)" fill="#00244D"/>
<rect width="39.4159" height="39.4159" transform="matrix(0.778826 -0.62724 0.778826 0.62724 284.859 892.613)" fill="#00244D"/>
<rect width="39.4159" height="39.4159" transform="matrix(0.778826 -0.62724 0.778826 0.62724 585.416 894.189)" fill="#00244D"/>
<rect width="39.4159" height="39.4159" transform="matrix(0.778825 -0.627241 0.778825 0.627241 879.293 894.189)" fill="#00244D"/>
<rect width="39.4159" height="39.4159" transform="matrix(0.778825 -0.627241 0.778825 0.627241 1176.51 894.189)" fill="#00244D"/>
<rect width="39.4159" height="39.4159" transform="matrix(0.778826 -0.627239 0.778826 0.627239 1477.07 894.189)" fill="#00244D"/>
</g>
</svg>
