<svg width="1359" height="1024" viewBox="0 0 1359 1024" fill="none" xmlns="http://www.w3.org/2000/svg">
<line x1="7.31107" y1="162.7" x2="1358.97" y2="162.7" stroke="#00244D" stroke-width="7"/>
<line y1="-3.5" x2="1351.66" y2="-3.5" transform="matrix(1 0.000873739 -0.000797451 1 7.31107 402.4)" stroke="#00244D" stroke-width="7"/>
<path d="M7.31107 638.6L1358.97 635.057" stroke="#00244D" stroke-width="7"/>
<path d="M-4 868.305H1359" stroke="#00244D" stroke-width="7"/>
<line x1="234.674" y1="35.8781" x2="234.674" y2="1002.02" stroke="#00244D" stroke-width="7"/>
<line x1="460.776" y1="35.8781" x2="460.776" y2="1002.02" stroke="#00244D" stroke-width="7"/>
<line x1="684.617" y1="35.8781" x2="684.617" y2="1002.02" stroke="#00244D" stroke-width="7"/>
<line x1="910.719" y1="35.8781" x2="910.719" y2="1002.02" stroke="#00244D" stroke-width="7"/>
<line x1="1136.82" y1="35.8781" x2="1136.82" y2="1002.02" stroke="#00244D" stroke-width="7"/>
<line x1="326.767" y1="1002.02" x2="326.767" y2="33.2311" stroke="black"/>
<line x1="384.929" y1="1002.02" x2="384.929" y2="33.2311" stroke="black"/>
<line x1="546.769" y1="1002.02" x2="546.769" y2="33.2311" stroke="black"/>
<line x1="604.93" y1="1002.02" x2="604.93" y2="33.2311" stroke="black"/>
<line x1="774.357" y1="1002.02" x2="774.357" y2="33.2311" stroke="black"/>
<line x1="832.519" y1="1002.02" x2="832.519" y2="33.2311" stroke="black"/>
<line x1="1001.95" y1="1002.02" x2="1001.95" y2="33.2311" stroke="black"/>
<line x1="1060.11" y1="1002.02" x2="1060.11" y2="33.2311" stroke="black"/>
<line x1="6.11502" y1="284.192" x2="1359" y2="284.192" stroke="black"/>
<line x1="6.11502" y1="519.77" x2="1359" y2="519.77" stroke="black"/>
<line x1="6.11502" y1="750.055" x2="1359" y2="750.055" stroke="black"/>
<rect width="33.6509" height="33.6509" transform="matrix(0.690779 -0.723066 0.690779 0.723066 210.944 161.89)" fill="#00244D"/>
<rect width="33.6509" height="33.6509" transform="matrix(0.690779 -0.723066 0.690779 0.723066 438.532 163.441)" fill="#00244D"/>
<rect width="33.6509" height="33.6509" transform="matrix(0.690779 -0.723066 0.690779 0.723066 661.063 163.441)" fill="#00244D"/>
<rect width="33.6509" height="33.6509" transform="matrix(0.690779 -0.723066 0.690779 0.723066 888.651 163.441)" fill="#00244D"/>
<rect width="33.6509" height="33.6509" transform="matrix(0.690779 -0.723066 0.690779 0.723066 1113.71 163.441)" fill="#00244D"/>
<rect width="33.6509" height="33.6509" transform="matrix(0.690779 -0.723066 0.690779 0.723066 210.944 399.02)" fill="#00244D"/>
<rect width="33.6509" height="33.6509" transform="matrix(0.690779 -0.723066 0.690779 0.723066 438.532 400.57)" fill="#00244D"/>
<rect width="33.6509" height="33.6509" transform="matrix(0.690778 -0.723066 0.690778 0.723066 663.592 400.57)" fill="#00244D"/>
<rect width="33.6509" height="33.6509" transform="matrix(0.690779 -0.723066 0.690779 0.723066 888.651 400.57)" fill="#00244D"/>
<rect width="33.6509" height="33.6509" transform="matrix(0.690778 -0.723066 0.690778 0.723066 1113.71 400.57)" fill="#00244D"/>
<rect width="33.6509" height="33.6509" transform="matrix(0.690779 -0.723066 0.690779 0.723066 210.944 637.245)" fill="#00244D"/>
<rect width="33.6509" height="33.6509" transform="matrix(0.690779 -0.723066 0.690779 0.723066 438.532 638.796)" fill="#00244D"/>
<rect width="33.6509" height="33.6509" transform="matrix(0.690778 -0.723066 0.690778 0.723066 663.592 638.796)" fill="#00244D"/>
<rect width="33.6509" height="33.6509" transform="matrix(0.690779 -0.723066 0.690779 0.723066 888.651 638.796)" fill="#00244D"/>
<rect width="33.6509" height="33.6509" transform="matrix(0.690778 -0.723066 0.690778 0.723066 1113.71 638.796)" fill="#00244D"/>
<rect width="33.6509" height="33.6509" transform="matrix(0.690779 -0.723066 0.690779 0.723066 210.944 867.53)" fill="#00244D"/>
<rect width="33.6509" height="33.6509" transform="matrix(0.690779 -0.723066 0.690779 0.723066 438.532 869.081)" fill="#00244D"/>
<rect width="33.6509" height="33.6509" transform="matrix(0.690779 -0.723066 0.690779 0.723066 661.063 869.081)" fill="#00244D"/>
<rect width="33.6509" height="33.6509" transform="matrix(0.690779 -0.723066 0.690779 0.723066 888.651 869.081)" fill="#00244D"/>
<rect width="33.6509" height="33.6509" transform="matrix(0.690778 -0.723066 0.690778 0.723066 1113.71 869.081)" fill="#00244D"/>
</svg>
